<svg width="66" height="106" viewBox="0 0 66 106" fill="none" xmlns="http://www.w3.org/2000/svg">
<path d="M0.577393 82.6193V79.7898C0.577393 78.3909 1.71146 77.2568 3.1104 77.2568H62.8895C64.2885 77.2568 65.4225 78.3909 65.4225 79.7898V82.5924C65.4225 83.9824 64.2957 85.1092 62.9057 85.1092C61.8344 85.1092 60.8805 85.7873 60.5286 86.7992L54.6156 103.799C54.2614 104.817 53.3013 105.5 52.2232 105.5H14.5814C13.5437 105.5 12.6109 104.867 12.2275 103.903L5.38101 86.6793C5.0042 85.7314 4.08731 85.1092 3.06725 85.1092C1.69214 85.1092 0.577393 83.9944 0.577393 82.6193Z" fill="#D9DCE1"/>
<rect x="29.707" y="52.4333" width="6.33253" height="22.7971" rx="3.16627" fill="#D9D9D9"/>
<path fill-rule="evenodd" clip-rule="evenodd" d="M32.8734 48.8872C46.3732 48.8872 57.317 37.9434 57.317 24.4436C57.317 10.9438 46.3732 0 32.8734 0C19.3736 0 8.42981 10.9438 8.42981 24.4436C8.42981 37.9434 19.3736 48.8872 32.8734 48.8872ZM33 30.6495C38.316 30.6495 42.6255 26.34 42.6255 21.024C42.6255 15.708 38.316 11.3986 33 11.3986C27.684 11.3986 23.3745 15.708 23.3745 21.024C23.3745 26.34 27.684 30.6495 33 30.6495Z" fill="#56AAFF"/>
<mask id="mask0_3_38" style="mask-type:alpha" maskUnits="userSpaceOnUse" x="8" y="0" width="50" height="49">
<circle cx="32.8734" cy="24.4436" r="24.3169" fill="#D9D9D9" stroke="black" stroke-width="0.253301"/>
</mask>
<g mask="url(#mask0_3_38)">
<path d="M49.9712 51.0402C49.9712 46.5056 48.1698 42.1567 44.9634 38.9502C41.7569 35.7438 37.408 33.9424 32.8734 33.9424C28.3387 33.9424 23.9898 35.7438 20.7834 38.9502C17.5769 42.1567 15.7755 46.5056 15.7755 51.0402L32.8734 51.0402H49.9712Z" fill="#0060C1"/>
</g>
<path d="M6.15002 44.3276C7.29449 53.6284 8.86813 68.0804 24.4615 62.643C28.7533 45.4723 11.7293 51.0528 6.15002 44.3276Z" fill="#56AAFF"/>
<path d="M59.5967 52.4333C58.4522 61.7341 56.8786 76.1861 41.2852 70.7487C36.9935 53.5781 54.0174 59.1585 59.5967 52.4333Z" fill="#56AAFF"/>
</svg>
